HIERARCHY
ROOT Hips
{
	OFFSET -3.958830 18.904000 13.208200
	CHANNELS 6 Xposition Yposition Zposition Zrotation Yrotation Xrotation 
	JOINT LHipJoint
	{
		OFFSET 0.000000 0.000000 0.000000
		CHANNELS 3 Zrotation Yrotation Xrotation
		JOINT LeftUpLeg
		{
			OFFSET 1.800000 -1.400000 0.085000
			CHANNELS 3 Zrotation Yrotation Xrotation
			JOINT LeftLeg
			{
				OFFSET 2.215000 -6.000000 0.000000
				CHANNELS 3 Zrotation Yrotation Xrotation
				JOINT LeftFoot
				{
					OFFSET 2.500000 -6.900000 0.000000
					CHANNELS 3 Zrotation Yrotation Xrotation
					JOINT LeftToeBase
					{
						OFFSET 0.200000 -0.500000 1.950000
						CHANNELS 3 Zrotation Yrotation Xrotation
						End Site
						{
							OFFSET 0.000000 0.000000 0.000000
						}
					}
				}
			}
		}
	}
	JOINT RHipJoint
	{
		OFFSET 0.000000 0.000000 0.000000
		CHANNELS 3 Zrotation Yrotation Xrotation
		JOINT RightUpLeg
		{
			OFFSET -1.800000 -1.400000 0.085000
			CHANNELS 3 Zrotation Yrotation Xrotation
			JOINT RightLeg
			{
				OFFSET -2.215000 -6.000000 0.000000
				CHANNELS 3 Zrotation Yrotation Xrotation
				JOINT RightFoot
				{
					OFFSET -2.500000 -6.900000 0.000000
					CHANNELS 3 Zrotation Yrotation Xrotation
					JOINT RightToeBase
					{
						OFFSET -0.200000 -0.500000 1.950000
						CHANNELS 3 Zrotation Yrotation Xrotation
						End Site
						{
							OFFSET 0.000000 0.000000 0.000000
						}
					}
				}
			}
		}
	}
	JOINT LowerBack
	{
		OFFSET 0.000000 0.000000 0.000000
		CHANNELS 3 Zrotation Yrotation Xrotation
		JOINT Spine
		{
			OFFSET -0.087000 1.940000 -0.288900
			CHANNELS 3 Zrotation Yrotation Xrotation
			JOINT Spine1
			{
				OFFSET 0.000000 1.950000 0.060000
				CHANNELS 3 Zrotation Yrotation Xrotation
				JOINT Neck
				{
					OFFSET 0.000000 0.000000 0.000000
					CHANNELS 3 Zrotation Yrotation Xrotation
					JOINT Neck1
					{
						OFFSET 0.000000 1.600000 0.340000
						CHANNELS 3 Zrotation Yrotation Xrotation
						JOINT Head
						{
							OFFSET 0.000000 1.667000 -0.240000
							CHANNELS 3 Zrotation Yrotation Xrotation
							End Site
							{
								OFFSET 0.000000 0.000000 0.000000
							}
						}
					}
				}
				JOINT LeftShoulder
				{
					OFFSET 0.000000 0.000000 0.000000
					CHANNELS 3 Zrotation Yrotation Xrotation
					JOINT LeftArm
					{
						OFFSET 2.700000 1.550000 -0.730000
						CHANNELS 3 Zrotation Yrotation Xrotation
						JOINT LeftForeArm
						{
							OFFSET 5.450000 0.000000 0.000000
							CHANNELS 3 Zrotation Yrotation Xrotation
							JOINT LeftHand
							{
								OFFSET 3.450000 0.000000 0.000000
								CHANNELS 3 Zrotation Yrotation Xrotation
								JOINT LeftHandIndex1
								{
									OFFSET 0.750000 0.000000 0.000000
									CHANNELS 3 Zrotation Yrotation Xrotation
									End Site
									{
										OFFSET 0.000000 0.000000 0.000000
									}
								}
							}
						}
					}
				}
				JOINT RightShoulder
				{
					OFFSET 0.000000 0.000000 0.000000
					CHANNELS 3 Zrotation Yrotation Xrotation
					JOINT RightArm
					{
						OFFSET -2.700000 1.550000 -0.730000
						CHANNELS 3 Zrotation Yrotation Xrotation
						JOINT RightForeArm
						{
							OFFSET -5.450000 0.000000 0.000000
							CHANNELS 3 Zrotation Yrotation Xrotation
							JOINT RightHand
							{
								OFFSET -3.450000 0.000000 0.000000
								CHANNELS 3 Zrotation Yrotation Xrotation
								JOINT RightHandIndex1
								{
									OFFSET -0.750000 0.000000 0.000000
									CHANNELS 3 Zrotation Yrotation Xrotation
									End Site
									{
										OFFSET 0.000000 0.000000 0.000000
									}
								}
							}
						}
					}
				}
			}
		}
	}
}
MOTION
Frames: 4
Frame Time: 0.016667
-1.492820 16.320670 -5.062080 3.358563 -17.706742 -22.125850 -15.608939 12.201475 4.222231 -16.797325 -0.777051 10.208500 -24.477705 21.509206 40.966143 1.562326 11.953206 1.003014 -0.202280 -0.515130 -0.396820 18.317533 -7.839853 4.135777 -0.892727 13.826176 -28.516801 20.754271 -24.664444 65.268441 -2.588960 -12.775131 0.307750 -0.330600 0.816280 0.645790 -3.156372 -4.458739 -9.068188 18.302036 -12.198476 66.068234 -7.908360 -7.694327 -4.309182 3.974170 -7.576538 -5.532075 -13.933394 4.928714 26.731049 -10.738410 3.032910 -24.013030 -13.876870 4.771211 -3.807216 1.022525 3.880659 -7.315907 123.986167 -38.391928 -72.059556 -4.177881 2.623652 0.834160 0.287800 0.086030 0.314280 5.714644 -0.639767 3.912275 40.338998 3.782066 -11.429096 -134.200868 35.334718 -85.649059 1.801300 -1.589816 -0.370830 0.411510 0.481340 0.065740 
-1.473350 16.195350 -5.074200 3.981541 -17.340438 -23.316827 -15.730039 12.296810 4.288493 -17.958051 -0.954126 10.459211 -24.056517 21.952496 42.581342 1.660828 12.234596 0.956174 -0.290690 -0.623060 -0.430960 18.226563 -7.497630 4.192436 -2.176922 14.230949 -29.127600 22.242308 -26.610628 67.129085 -2.738016 -13.375623 0.187599 -0.399100 0.848090 0.633220 -2.848766 -5.200675 -9.233583 16.996837 -11.721284 68.877779 -7.542997 -7.209946 -6.028133 4.915991 -6.737951 -5.968095 -12.807911 4.375281 28.209689 -12.545230 3.915880 -22.391190 -14.396697 3.638067 -3.785980 2.940309 5.228173 -7.769074 127.197234 -35.632017 -72.616790 -4.195336 2.617862 0.849720 0.308190 0.075570 0.300730 4.374813 0.429966 4.569000 44.292276 2.764552 -13.130016 -134.711277 30.867304 -78.580782 1.786026 -1.620039 -0.407700 0.431780 0.515330 0.056820 
-1.447310 16.139470 -5.061060 3.760790 -17.301275 -23.943789 -15.740947 12.283911 4.320142 -18.291328 -1.209134 10.516975 -24.132564 22.134333 43.065944 1.714396 12.304044 0.929260 -0.308500 -0.641410 -0.427260 18.215261 -7.416008 4.234436 -2.780400 14.276744 -28.924651 23.763640 -28.320397 67.802990 -2.866589 -13.745761 0.107150 -0.431980 0.817060 0.641650 -2.820707 -5.320079 -9.318854 18.130159 -12.674230 69.311649 -8.848781 -7.294801 -6.632906 5.767646 -6.265242 -6.352622 -12.531657 4.028751 31.082758 -14.006680 4.316230 -21.696240 -15.733210 1.860424 -3.576146 4.533082 5.563798 -7.977127 130.102263 -35.289430 -76.499406 -4.172675 2.639499 0.860550 0.292990 0.106250 0.287200 3.907742 1.899149 5.161354 48.705003 2.738932 -14.501062 -134.968199 28.049020 -73.894159 1.787807 -1.634381 -0.386260 0.417060 0.521050 0.053660 
-1.442720 16.100500 -5.046190 3.630441 -17.330568 -23.239722 -15.736337 12.214102 4.344946 -18.660315 -1.750241 9.581016 -24.453421 22.410781 43.728725 1.768080 12.357146 0.911473 -0.278630 -0.591130 -0.403620 18.222301 -7.375201 4.301873 -2.980770 14.284627 -30.003168 24.105963 -29.041681 68.464922 -2.938976 -13.930786 0.083787 -0.419470 0.782160 0.623750 -2.846431 -5.268312 -9.392407 18.641017 -12.531738 67.376948 -8.780410 -6.714535 -6.527594 5.728555 -5.937619 -6.715278 -12.617054 3.713342 33.948631 -14.202500 4.302120 -20.875380 -16.454356 0.905533 -2.966360 3.036217 4.202004 -7.500760 133.912969 -36.662617 -84.763936 -4.124219 2.652674 0.858620 0.273110 0.137620 0.302740 4.693151 2.810107 5.282326 51.110511 3.016380 -15.085093 -135.002327 27.138339 -72.548532 1.795299 -1.626989 -0.365650 0.419490 0.480400 0.060180 
